# xmcd
#
# Track frame offsets: 
#        150
#        16237
#        29762
#        42635
#        52704
#        68631
#        79846
#        91361
#        105193
#        120989
#        146650
#        158512
#        168895
#        183145
#        203696
#        220220
#        235105
#        254916
#        287540
#
# Disc length: 4020 seconds
#
# Revision: 1
# Processed by: cddbd v1.5.2PL0 Copyright (c) Steve Scherf et al.
# Submitted via: ExactAudioCopy v0.99pb4
#
DISCID=f70fb213
DTITLE=Various Artist - Funky Harmonica
DYEAR=2007
DGENRE=Blues
TTITLE0=LOUIS MYERS Top of the Harp 
TTITLE1=BOBBY RUSH She's a Good Un Part 1
TTITLE2=JUNIOR WELLS Snatch It Back and Hold It
TTITLE3=JERRY McCAIN Juicy Lucy
TTITLE4=SMOKEY WILSON Go Go Train
TTITLE5=FRANK FROST Feel Good Babe
TTITLE6=GEORGE "WILD CHILD" BUTLER Hold Me Baby
TTITLE7=RAFUL NEAL Let's Work Together
TTITLE8=BUSTER BENTON Do It In the Rain
TTITLE9=JIMMY REED Big Legged Woman
TTITLE10=FRANK FROST My Back Scratcher
TTITLE11=GEORGE "WILD CHILD" BUTLER Jelly Jam
TTITLE12=JERRY McCAIN Soul Spasm
TTITLE13=JIMMY REED Big Boss Man
TTITLE14=JUNIOR WELLS We're Ready
TTITLE15=SMOKEY WILSON Tell Me Baby
TTITLE16=ROD PIAZZA and THE MIGHTY FLYERS Come On Home
TTITLE17=BILLY BRANCH and CARLOS JOHNSON Don't Throw Your Love On Me So 
TTITLE17=Strong
TTITLE18=BERNARD McGEE The Time is Right
EXTD=YEAR: 2007
EXTT0=
EXTT1=
EXTT2=
EXTT3=
EXTT4=
EXTT5=
EXTT6=
EXTT7=
EXTT8=
EXTT9=
EXTT10=
EXTT11=
EXTT12=
EXTT13=
EXTT14=
EXTT15=
EXTT16=
EXTT17=
EXTT18=
PLAYORDER=
